<svg xmlns="http://www.w3.org/2000/svg" width="16" height="16" viewBox="0 0 16 16">
  <g fill="none" fill-rule="evenodd">
    <rect width="16" height="16" fill="#263750" rx="8"/>
    <path fill="#FFF" d="M7.32861328,10.5888672 L8.78369141,10.5888672 L8.78369141,12 L7.32861328,12 L7.32861328,10.5888672 Z M5.54638672,7.07324219 C5.58544941,6.14550317 5.9093394,5.48795767 6.51806641,5.10058594 C6.90218291,4.85318887 7.3741834,4.72949219 7.93408203,4.72949219 C8.66976279,4.72949219 9.28092205,4.90527168 9.76757812,5.25683594 C10.2542342,5.6084002 10.4975586,6.12922832 10.4975586,6.81933594 C10.4975586,7.24251514 10.3917654,7.59895688 10.1801758,7.88867188 C10.0564772,8.064454 9.81884941,8.28906113 9.46728516,8.5625 L9.12060547,8.83105469 C8.93180244,8.97753979 8.80647817,9.14843652 8.74462891,9.34375 C8.70556621,9.46744854 8.68440757,9.65950391 8.68115234,9.91992188 L7.36279297,9.91992188 C7.38232432,9.36978892 7.43440713,8.98974714 7.51904297,8.77978516 C7.60367881,8.56982317 7.82177559,8.32812637 8.17333984,8.0546875 L8.52978516,7.77636719 C8.64697324,7.68847612 8.74137334,7.59244844 8.81298828,7.48828125 C8.94319727,7.3092439 9.00830078,7.11230576 9.00830078,6.89746094 C9.00830078,6.65006387 8.93587312,6.42464294 8.79101562,6.22119141 C8.64615813,6.01773987 8.3816751,5.91601562 7.99755859,5.91601562 C7.61995254,5.91601562 7.35221433,6.04133989 7.19433594,6.29199219 C7.03645754,6.54264448 6.95751953,6.80305854 6.95751953,7.07324219 L5.54638672,7.07324219 Z"/>
  </g>
</svg>
