<svg xmlns="http://www.w3.org/2000/svg" width="22" height="22" viewBox="0 0 22 22">
  <g fill="#626D7E">
    <path d="M11 1.5C10.7238576 1.5 10.5 1.27614237 10.5 1 10.5.723857625 10.7238576.5 11 .5 11.3515238.5 11.7010162.517291499 12.0476197.551644981 12.3224156.578881275 12.5231023.823726759 12.495866 1.09852268 12.4686298 1.37331859 12.2237843 1.57400532 11.9489884 1.54676902 11.6351484 1.51566289 11.3185731 1.5 11 1.5zM13.8186606 1.92498942C13.5549188 1.84316725 13.4074438 1.56303229 13.489266 1.29929048 13.5710881 1.03554867 13.8512231.888073659 14.1149649.969895829 14.4499413 1.07381751 14.7790406 1.19445501 15.1011958 1.33126749 15.3553676 1.43920884 15.4739107 1.73275951 15.3659694 1.98693125 15.258028 2.241103 14.9644773 2.35964615 14.7103056 2.2517048 14.4190313 2.12800677 14.1214986 2.01894063 13.8186606 1.92498942zM16.4374426 3.20893528C16.211141 3.05068797 16.1559722 2.7389495 16.3142195 2.51264794 16.4724668 2.28634638 16.7842053 2.23117751 17.0105068 2.38942483 17.2974701 2.59009145 17.5742844 2.80498226 17.8398839 3.03321289 18.049323 3.21318473 18.073211 3.52886469 17.8932391 3.73830382 17.7132673 3.94774295 17.3975873 3.97163091 17.1881482 3.79165908 16.9477253 3.58506281 16.6971661 3.39055373 16.4374426 3.20893528zM18.4874881 5.15227007C18.3173592 4.93475962 18.3557696 4.6205159 18.5732801 4.45038708 18.7907905 4.28025826 19.1050342 4.31866866 19.2751631 4.5361791 19.4908592 4.81194761 19.6927044 5.09830948 19.8798615 5.39418322 20.0274828 5.62755539 19.957968 5.9364116 19.7245958 6.08403288 19.4912236 6.23165417 19.1823674 6.16213934 19.0347461 5.92876717 18.8653842 5.66102552 18.682712 5.40186469 18.4874881 5.15227007zM19.8944844 7.65491072C19.7972349 7.39645929 19.9279149 7.1081067 20.1863663 7.01085718 20.4448177 6.91360767 20.7331703 7.04428764 20.8304198 7.30273907 20.9536556 7.63025175 21.0604645 7.96412547 21.1503533 8.30331125 21.2210927 8.57023922 21.0620505 8.84397276 20.7951226 8.91471223 20.5281946 8.9854517 20.2544611 8.8264095 20.1837216 8.55948153 20.1024572 8.25283888 20.0058979 7.95100455 19.8944844 7.65491072zM20.4820369 10.4107028C20.4651821 10.1350753 20.6749589 9.89797157 20.9505864 9.88111683 21.226214 9.86426209 21.4633177 10.0740389 21.4801724 10.3496664 21.4931414 10.5617492 21.4997646 10.7747596 21.4999941 10.9887756L21.5 11C21.5 11.1370735 21.4973707 11.2738498 21.4921244 11.4102793 21.4815134 11.6862177 21.2492191 11.901308 20.9732807 11.890697 20.6973423 11.880086 20.4822519 11.6477917 20.492863 11.3718533 20.497617 11.2482255 20.5 11.1242602 20.5000001 11.0002681L20.4999944 10.9895798C20.4997867 10.7958375 20.4937852 10.6028241 20.4820369 10.4107028zM20.2307304 13.2555975C20.2960532 12.9872925 20.5665119 12.8227429 20.8348168 12.8880657 21.1031218 12.9533884 21.2676714 13.2238471 21.2023486 13.4921521 21.1193304 13.8331387 21.0193091 14.1690853 20.9027553 14.4989536 20.8107585 14.759321 20.5251108 14.8958124 20.2647434 14.8038156 20.004376 14.7118188 19.8678846 14.4261712 19.9598814 14.1658037 20.0652522 13.8675856 20.1556753 13.5638767 20.2307304 13.2555975zM19.1214735 15.9314644C19.2650335 15.6955722 19.5726403 15.6207221 19.8085325 15.7642821 20.0444247 15.907842 20.1192748 16.2154488 19.9757148 16.4513411 19.7936157 16.7505593 19.5966465 17.0404955 19.3856272 17.3200617 19.2192642 17.5404658 18.9057275 17.5842747 18.6853234 17.4179117 18.4649194 17.2515486 18.4211105 16.9380119 18.5874735 16.7176079 18.778453 16.4645911 18.9567004 16.2022131 19.1214735 15.9314644zM17.303638 18.1074782C17.5101628 17.9241694 17.8261854 17.9429896 18.0094942 18.1495143 18.192803 18.3560391 18.1739828 18.6720617 17.9674581 18.8553705 17.7055988 19.0877936 17.4323176 19.3070676 17.1486724 19.5122933 16.9249484 19.6741641 16.612362 19.6240223 16.4504911 19.4002983 16.2886202 19.1765743 16.338762 18.8639879 16.562486 18.702117 16.8192198 18.5163626 17.0665923 18.317877 17.303638 18.1074782zM14.8381465 19.6928868C15.0906976 19.5812063 15.3859657 19.6954045 15.4976462 19.9479556 15.6093267 20.2005067 15.4951285 20.4957748 15.2425774 20.6074554 14.9224159 20.7490338 14.5951012 20.8745308 14.2617065 20.9833883 13.9992026 21.069099 13.7169189 20.9257798 13.6312082 20.663276 13.5454975 20.4007721 13.6888166 20.1184884 13.9513205 20.0327776 14.252734 19.9343624 14.5486626 19.8208993 14.8381465 19.6928868zM12.1757382 20.4280124C12.449803 20.3942024 12.6993848 20.5889674 12.7331948 20.8630322 12.7670048 21.1370969 12.5722398 21.3866787 12.298175 21.4204887 11.9521435 21.4631769 11.6029231 21.4887798 11.2513942 21.4970468 10.9753281 21.503539 10.7462693 21.2850063 10.7397771 21.0089403 10.7332848 20.7328742 10.9518175 20.5038154 11.2278836 20.4973232 11.5463193 20.4898345 11.8625238 20.4666521 12.1757382 20.4280124zM9.31364424 20.3508664C9.58546243 20.3995437 9.7663538 20.6593567 9.71767643 20.9311749 9.66899906 21.2029931 9.40918608 21.3838844 9.1373679 21.3352071 8.79172725 21.2733095 8.45031201 21.194208 8.11412372 21.0983055 7.84857467 21.0225539 7.69471347 20.745875 7.77046511 20.4803259 7.84621675 20.2147769 8.12289563 20.0609157 8.38844468 20.1366673 8.69239396 20.2233732 9.00108741 20.2948935 9.31364424 20.3508664zM6.5888871 19.416097C6.83335631 19.5445081 6.92743999 19.8467873 6.79902887 20.0912565 6.67061776 20.3357257 6.36833852 20.4298094 6.12386931 20.3013983 5.81368603 20.1384699 5.51191192 19.9600949 5.21964505 19.7670245 4.98923719 19.614818 4.92584249 19.3046477 5.07804903 19.0742399 5.23025556 18.843832 5.54042581 18.7804373 5.77083367 18.9326438 6.03527807 19.1073348 6.30829475 19.2687116 6.5888871 19.416097zM4.29793285 17.7329265C4.49364004 17.9277426 4.49436244 18.2443242 4.29954636 18.4400314 4.10473028 18.6357386 3.78814861 18.636461 3.59244141 18.4416449 3.34435672 18.1946898 3.1086711 17.9355252 2.88633889 17.6651749 2.71093856 17.4518926 2.74164797 17.1368031 2.95493027 16.9614028 3.16821257 16.7860025 3.48330208 16.8167119 3.65870241 17.0299942 3.85997123 17.2747319 4.07333796 17.5093542 4.29793285 17.7329265zM2.56808382 15.380864C2.69561293 15.6257945 2.60044031 15.9277326 2.35550983 16.0552617 2.11057935 16.1827908 1.8086412 16.0876182 1.6811121 15.8426877 1.51940088 15.5321076 1.3733027 15.2134769 1.24344938 14.8878867 1.14115269 14.6313911 1.26615562 14.3405324 1.52265123 14.2382358 1.77914684 14.1359391 2.07000547 14.260942 2.17230216 14.5174376 2.28971778 14.811842 2.42183368 15.0999782 2.56808382 15.380864zM1.66198691 12.7566003C1.71271508 13.0280432 1.53379042 13.2892145 1.26234749 13.3399427.990904558 13.3906708.729733278 13.2117462.679005108 12.9403032.614871554 12.597129.567780683 12.2499719.538040725 11.8997652.514674503 11.6246132.718787216 11.3826163.993939231 11.3592501 1.26909124 11.3358839 1.51108809 11.5399966 1.53445431 11.8151486 1.56136964 12.1320935 1.60397471 12.446181 1.66198691 12.7566003zM1.56439532 9.88754869C1.53242209 10.1618338 1.28415065 10.3582664 1.00986553 10.3262932.735580418 10.2943199.539147827 10.0460485.57112106 9.77176337.611787285 9.42290469.669762906 9.07748421.74470897 8.73645877.803981416 8.46675266 1.07067123 8.29616246 1.34037735 8.35543491 1.61008346 8.41470735 1.78067366 8.68139717 1.72140121 8.95110329 1.65362422 9.25950743 1.6011863 9.57193412 1.56439532 9.88754869zM2.32434979 7.12311058C2.2115365 7.37515775 1.91575866 7.4880291 1.66371149 7.37521581 1.41166433 7.26240252 1.29879297 6.96662468 1.41160626 6.71457752 1.55474839 6.39476974 1.71383488 6.08249297 1.88818643 5.77884372 2.02568915 5.53937011 2.33128886 5.45670636 2.57076247 5.59420908 2.81023609 5.7317118 2.89289983 6.03731151 2.75539711 6.27678512 2.59768702 6.55145174 2.45380124 6.83389049 2.32434979 7.12311058zM3.86420509 4.72840911C3.68182213 4.93575199 3.36588692 4.955986 3.15854404 4.77360305 2.95120117 4.59122009 2.93096715 4.27528488 3.11335011 4.067942 3.34456388 3.8050856 3.58874505 3.55385052 3.84491234 3.31523901 4.04697564 3.12702361 4.36335903 3.13824955 4.55157443 3.34031284 4.73978983 3.54237613 4.72856389 3.85875953 4.5265006 4.04697492 4.29458727 4.26299466 4.07352373 4.49044428 3.86420509 4.72840911zM6.09609734 2.86181693C5.85971934 3.00457566 5.5523683 2.92868225 5.40960957 2.69230425 5.26685085 2.45592625 5.34274426 2.14857521 5.57912226 2.00581649 5.87884399 1.82480179 6.18750213 1.65885399 6.50399893 1.50867769 6.75348088 1.39029962 7.05169034 1.49658033 7.17006841 1.74606228 7.28844647 1.99554423 7.18216577 2.2937537 6.93268381 2.41213176 6.64643154 2.54795717 6.36723818 2.69806344 6.09609734 2.86181693zM8.67036509 1.78761261C8.40259735 1.85510371 8.13081636 1.6927474 8.06332527 1.42497966 7.99583418 1.15721192 8.15819048.885430936 8.42595822.817939842 8.76483098.732526666 9.10851131.664018738 9.45601871.612786615 9.72920818.572510993 9.98332184.761324971 10.0235975 1.03451444 10.0638731 1.30770391 9.87505911 1.56181757 9.60186964 1.60209319 9.28756113 1.64843089 8.97677336 1.71038214 8.67036509 1.78761261zM9.07118634 12.5906268L9.1089679 12.6429139 10.2762857 14.5 11.7237143 14.5 12.9288137 12.5906268C13.066761 12.423579 13.1825547 12.2394128 13.2951535 11.999997L13.3113845 11.9546897C13.4353726 11.6549019 13.5 11.3323836 13.5 11 13.5 9.61928813 12.3807119 8.5 11 8.5 9.61928813 8.5 8.5 9.61928813 8.5 11 8.5 11.3320138 8.56448356 11.6541853 8.70464342 11.999757 8.70459199 11.999587 8.70456452 11.9995239 8.72705327 12.0427603 8.81746195 12.2394393 8.93324899 12.4235911 9.07118634 12.5906268zM7.84081367 12.503443C7.80126454 12.4356142 7.77003261 12.3638259 7.76395369 12.3354812 7.59043674 11.9154223 7.5 11.4635842 7.5 11 7.5 9.06700338 9.06700338 7.5 11 7.5 12.9329966 7.5 14.5 9.06700338 14.5 11 14.5 11.4641017 14.4093611 11.9164284 14.251702 12.2915672 14.2292181 12.3653308 14.1982574 12.4363138 14.1815762 12.4603636 14.0548962 12.7359624 13.8928178 12.9937429 13.7376673 13.1750875L12.5703496 15.0321737C12.387347 15.3233124 12.0675918 15.5 11.7237143 15.5L10.2762857 15.5C9.93240822 15.5 9.61265296 15.3233124 9.42965044 15.0321737L8.27887372 13.2014027C8.09530748 12.9747608 7.9412758 12.7274134 7.84081367 12.503443zM10 16L12 16C12.2761424 16 12.5 16.2238576 12.5 16.5 12.5 16.7761424 12.2761424 17 12 17L10 17C9.72385763 17 9.5 16.7761424 9.5 16.5 9.5 16.2238576 9.72385763 16 10 16zM11 5C11.2761424 5 11.5 5.22385763 11.5 5.5L11.5 6.5C11.5 6.77614237 11.2761424 7 11 7 10.7238576 7 10.5 6.77614237 10.5 6.5L10.5 5.5C10.5 5.22385763 10.7238576 5 11 5zM14.50302 6.1339746C14.7421663 6.27204578 14.8241039 6.57784099 14.6860327 6.8169873L14.1860327 7.6830127C14.0479615 7.92215901 13.7421663 8.00409659 13.50302 7.8660254 13.2638737 7.72795422 13.1819361 7.42215901 13.3200073 7.1830127L13.8200073 6.3169873C13.9580785 6.07784099 14.2638737 5.99590341 14.50302 6.1339746zM16.5670423 8.69650589C16.7051135 8.9356522 16.6231759 9.24144741 16.3840296 9.3795186L15.5180042 9.8795186C15.2788578 10.0175898 14.9730626 9.9356522 14.8349915 9.69650589 14.6969203 9.45735958 14.7788578 9.15156438 15.0180042 9.01349319L15.8840296 8.51349319C16.1231759 8.375422 16.4289711 8.45735958 16.5670423 8.69650589zM7.50302003 6.1339746C7.74216634 5.99590341 8.04796154 6.07784099 8.18603273 6.3169873L8.68603273 7.1830127C8.82410392 7.42215901 8.74216634 7.72795422 8.50302003 7.8660254 8.26387371 8.00409659 7.95807851 7.92215901 7.82000732 7.6830127L7.32000732 6.8169873C7.18193614 6.57784099 7.26387371 6.27204578 7.50302003 6.1339746zM5.42999268 8.69650589C5.56806386 8.45735958 5.87385907 8.375422 6.11300538 8.51349319L6.97903078 9.01349319C7.21817709 9.15156438 7.30011467 9.45735958 7.16204348 9.69650589 7.0239723 9.9356522 6.71817709 10.0175898 6.47903078 9.8795186L5.61300538 9.3795186C5.37385907 9.24144741 5.29192149 8.9356522 5.42999268 8.69650589z"/>
  </g>
</svg>
